<mxfile host="app.diagrams.net" agent="Mozilla/5.0 (Windows NT 10.0; Win64; x64) AppleWebKit/537.36 (KHTML, like Gecko) Chrome/128.0.0.0 Safari/537.36" version="24.7.12">
  <diagram name="第 1 页" id="CM5frEGZMOGYdJdPdgxb">
    <mxGraphModel dx="683" dy="355" grid="1" gridSize="10" guides="1" tooltips="1" connect="1" arrows="1" fold="1" page="1" pageScale="1" pageWidth="827" pageHeight="1169" math="0" shadow="0">
      <root>
        <mxCell id="0" />
        <mxCell id="1" parent="0" />
        <mxCell id="RSiTvYrEAQizDabYgRL6-1" value="" style="triangle;whiteSpace=wrap;html=1;rotation=90;fillColor=#ffe6cc;strokeColor=#d79b00;" parent="1" vertex="1">
          <mxGeometry x="400" y="5" width="60" height="130" as="geometry" />
        </mxCell>
        <mxCell id="RSiTvYrEAQizDabYgRL6-2" value="&lt;font style=&quot;font-size: 14px;&quot;&gt;Dom&lt;/font&gt;&lt;div style=&quot;font-size: 14px;&quot;&gt;&lt;br&gt;&lt;/div&gt;" style="text;html=1;align=center;verticalAlign=middle;whiteSpace=wrap;rounded=0;" parent="1" vertex="1">
          <mxGeometry x="400" y="55" width="60" height="30" as="geometry" />
        </mxCell>
        <mxCell id="RSiTvYrEAQizDabYgRL6-3" value="" style="endArrow=classic;html=1;rounded=0;entryX=0.628;entryY=-0.033;entryDx=0;entryDy=0;entryPerimeter=0;" parent="1" edge="1" target="MIKHkH5czW7Q3cuvCCsl-2">
          <mxGeometry width="50" height="50" relative="1" as="geometry">
            <mxPoint x="429.76" y="100" as="sourcePoint" />
            <mxPoint x="430" y="170" as="targetPoint" />
          </mxGeometry>
        </mxCell>
        <mxCell id="RSiTvYrEAQizDabYgRL6-4" value="" style="shape=document;whiteSpace=wrap;html=1;boundedLbl=1;fillColor=#f8cecc;strokeColor=#b85450;" parent="1" vertex="1">
          <mxGeometry x="40" y="200" width="80" height="60" as="geometry" />
        </mxCell>
        <mxCell id="RSiTvYrEAQizDabYgRL6-5" value="HTML" style="text;html=1;align=center;verticalAlign=middle;whiteSpace=wrap;rounded=0;" parent="1" vertex="1">
          <mxGeometry x="50" y="210" width="60" height="30" as="geometry" />
        </mxCell>
        <mxCell id="RSiTvYrEAQizDabYgRL6-6" value="HTML&lt;div&gt;Paster&lt;/div&gt;" style="rounded=0;whiteSpace=wrap;html=1;fillColor=#dae8fc;strokeColor=#6c8ebf;" parent="1" vertex="1">
          <mxGeometry x="190" y="200" width="90" height="50" as="geometry" />
        </mxCell>
        <mxCell id="RSiTvYrEAQizDabYgRL6-9" value="" style="endArrow=classic;html=1;rounded=0;entryX=0;entryY=0.5;entryDx=0;entryDy=0;" parent="1" target="RSiTvYrEAQizDabYgRL6-6" edge="1">
          <mxGeometry width="50" height="50" relative="1" as="geometry">
            <mxPoint x="120" y="224.86" as="sourcePoint" />
            <mxPoint x="170" y="224.86" as="targetPoint" />
          </mxGeometry>
        </mxCell>
        <mxCell id="MIKHkH5czW7Q3cuvCCsl-1" value="" style="endArrow=classic;html=1;rounded=0;" edge="1" parent="1">
          <mxGeometry width="50" height="50" relative="1" as="geometry">
            <mxPoint x="280" y="224.76" as="sourcePoint" />
            <mxPoint x="360" y="224.76" as="targetPoint" />
          </mxGeometry>
        </mxCell>
        <mxCell id="MIKHkH5czW7Q3cuvCCsl-2" value="" style="shape=parallelogram;perimeter=parallelogramPerimeter;whiteSpace=wrap;html=1;fixedSize=1;" vertex="1" parent="1">
          <mxGeometry x="354" y="200" width="126" height="50" as="geometry" />
        </mxCell>
      </root>
    </mxGraphModel>
  </diagram>
</mxfile>
